<svg id="Morocco" xmlns="http://www.w3.org/2000/svg" viewBox="0 0 595.28 595.28">
  <defs>
    <style>
      .cls-1 {
        stroke: #1d1d1b;
        stroke-miterlimit: 10;
        stroke-width: 2px;
      }
      .cls-2 {
        fill: white;
      }
      #Regioni path:hover {
        fill: blue;
      }
    </style>
  </defs>
  <title>Map</title>
  <g id="Background"><path
    id="Tangeri_Tetouan_AlHoceima"
    class="cls-1"
    d="M421.59,22.68c2.34-.22,3.24-3.62,5.74-3.11.67.06,1.36.18,2,.29-.14,2.87-.62,6.1,1.2,8.56,1.24,1.54,1.38,3.6,2.35,5.28,1.24,1.13,2.92,1.72,4,3.06,1,1.1,1.53,2.67,2.85,3.47,2.39,1.4,4,3.79,6.47,5.08,4.11,3.61,9.79,3.88,14.83,5.29,2.31.86,4.33-.92,6.57-1.21,3.13-.58,6.06-1.94,9.22-2.43a7.16,7.16,0,0,0,4.43,2.16c-.27,4,.25,8.14-.74,12.1-1.8,1.27-4.26,1.37-6.35,2.07-1.13,1.16-2.28,2.3-3.43,3.44a17.33,17.33,0,0,1-4.28-2.79c-.73,1.17-1.45,2.36-2.13,3.56-1.38.33-3.35,0-3.88,1.69a68.38,68.38,0,0,0-11-2.18c-.27-1.5-.54-3-.78-4.5-3.22.57-6.28,1.8-9.51,2.33a9.51,9.51,0,0,0-4,2.12,40.38,40.38,0,0,1-.27,7l-1.67.13c-1.15,2.16-3.7,1.18-5.66,1.32.05-1.13.12-2.25.19-3.37-1.26-.56-2.52-1.12-3.76-1.73a7.61,7.61,0,0,0-4.05-3.65,12,12,0,0,0-1.49,1q-1.45-.47-2.91-.9c0-2.64,0-5.29,0-7.93-1.78-.26-3.76,0-5.34-1.07-1.09-.55-2.14-1.83-3.44-1-1.6-2.15-4.08-.68-6.15-.32.62-2.41,1.05-4.93,2.25-7.14,2-3.33,2.22-7.33,3.93-10.78,2.36-4.61,2.58-9.93,4.46-14.72a13.44,13.44,0,0,1,4.15,1.24c.81-.75,1.59-1.53,2.36-2.33C419,22.73,420.3,22.78,421.59,22.68Z"/><path
    id="RegioneOrientale"
    class="cls-1"
    d="M509,41.16c.27,1,.52,2.05.81,3.07.59,1.86.88,3.82,1.46,5.69,1.24,2.45,4.33,3.32,6.86,2.59a15.56,15.56,0,0,0,5.6,1c1.81.08,3.1-1.37,4.64-2.07,2.38.29,5.12.9,6.34,3.21,2.08,2.16,4.21,4.64,7.17,5.54.59,1.49,2.06,2.18,3.35,3,1,2,3.25,2.65,5,3.74-1,1.7-2.1,3.35-3.19,5,1.7,1.81,2.78,4.15,4.8,5.66-.85,1.26-2.23,2.33-2.5,3.86.84,1.45,2.37,2.63,2.32,4.46.08,2.49,1.22,4.71,1.84,7.07,0,3.89-2,7.65-1.07,11.55.64,1.84-1.26,3.05-2.06,4.47a7.28,7.28,0,0,0,3.35,2.09,7,7,0,0,1,1.81,5.18c-1.58,3.31-2.81,6.85-2.37,10.58,2.39,2.49,3.27,6.25,6.45,8,0,.94-.06,1.87-.08,2.82-.74.46-1.49.91-2.18,1.43a50.23,50.23,0,0,0,3.32,5.78c1,1.53,1.73,3.43,3.56,4.13,4.17,1.91,7.36,5.3,11.14,7.79a10.9,10.9,0,0,1-6.21,4c-2,2.24-2,5.29-2,8.1-.62.61-1.24,1.22-1.85,1.84,1.12.88,2.49.52,3.74.23l1.29,1.6c-3.1,1.94-6.82.26-10.2.36-6.36.23-12.29-2.42-18.51-3.2-1.92.2-3.7,1.57-5.66,1-3-.7-6.05-.23-9.06-.28-2.29-.09-4.13,1.67-6.39,1.67-2.57.12-5.15,0-7.72,0a17.21,17.21,0,0,0-2.45,3.66,31.1,31.1,0,0,1,3.74,9.06c-4.3.7-8.42,2.22-12.75,2.8,1.4-1.44,2.81-2.88,4.09-4.44l-3.44.29c-1.41-3.17-2.32-6.62-1.57-10.09a28.25,28.25,0,0,0,2.34-3.74,20.84,20.84,0,0,0-5.29,3c-1.69-.4-3.31-1-5-1.47-1.56-.66-2.87,1.2-4.39.78-.89-1.18,1-1.91,1.57-2.79-1.92-.05-3.84-.15-5.74-.23,0-.76,0-1.51-.05-2.26l-1.74-.18c-.26-1.66-.41-3.5-1.57-4.82a43,43,0,0,1-3.31-4.2l1-1.59a11.53,11.53,0,0,1-3.39-2.77c.12-1.9,1.5-3.31,2.55-4.79,1.27-1.62,2.28-3.42,3.44-5.12s3.36-2.62,4.16-4.65a12.28,12.28,0,0,1,4.24-5.19c1.77.54,3.36,1.57,5.17,2,3.2.09,6.32-.87,9.45-1.43s6.85-1.38,8.68-4.39a5.52,5.52,0,0,0-1.57-2.82c-2.8-3-5.73-5.78-8.67-8.6-.65-.68-1.55-1.36-1.26-2.43,1.29-1.47,3.06-2.51,4-4.27a17,17,0,0,1,3.17-3.72c-.32-.52-.63-1-.94-1.56-2.75,0-5.57.27-8.26-.41-2.8-1.4-4.81-4-7.54-5.47-2.46,3.79-4.9,8-9.11,10.11-1.59.63-2.23,2.28-2.41,3.87-1.5-.07-2.43,1.09-3.36,2.07-1.75,0-3.54-.27-4.69-1.73a44.59,44.59,0,0,0,.58-4.46c1.15-1.17,2.86-1.49,4.33-2.09,0-1-.09-2.08-.11-3.11,2-1.46,2.25-3.92,2.18-6.22.78-.67,1.53-1.38,2.35-2-.77-.76-.43-1.81-.35-2.72.29-2,.46-3.9.56-5.86l-1.95-.38-.93-2.16c.64-.44,1.33-.85,1.93-1.35a39.25,39.25,0,0,0,.23-5.31c1.11-1.07,2.63-2,2.93-3.64.12-1.24.05-2.49.08-3.73,1.62,0,4.08.58,4.13-1.81l1.25-1.21q-.37-.85-.72-1.71a6.93,6.93,0,0,0,.49-4.37c-1.6-.62-3.37-.27-5-.34l-.65-1.63-2.09.35c1.21-3.7.55-7.59.89-11.39,0-.89.83-1.44,1.26-2.14A11.84,11.84,0,0,1,485.11,45c3.23,3.36,8,4,12.35,4.47C501.69,47.43,507.35,46.18,509,41.16Z"/><path
    id="Rabat_Sale_Kenitra"
    class="cls-1"
    d="M400.33,57.05c1.87.19,4.13-1.6,5.64,0,.6.79,1.49.06,2.2-.07.76.6,1.51,1.21,2.26,1.83l4.4.32c0,2.6,0,5.21,0,7.81,1.57.82,3.48,2.3,5.05.54,1.81.27,2.76,1.77,3.59,3.23,1.24.57,2.48,1.14,3.74,1.67-.13,1-.24,1.94-.35,2.91.32.19,1,.55,1.3.73l2.14-.12a8.12,8.12,0,0,1-2.44,4.4c-1.42.57-2.86,1.13-4.32,1.61.38.77.76,1.55,1.15,2.33l1.35.12c.37.77.75,1.53,1.14,2.3-.53.49-1,1-1.55,1.47.08.86.18,1.71.27,2.57h-2.38c-.4.51-.81,1-1.24,1.5-1.37-.18-2.75-.32-4.12-.43,0-.44,0-1.35,0-1.8l-2.48.07c-.23-.69-.44-1.38-.65-2.07-1.15,1.49-2.37,2.94-3.4,4.52,0,1.45,1.61,2.22,2.42,3.24,0,.35.13,1,.17,1.38.54.57,1.09,1.13,1.64,1.7a23.28,23.28,0,0,1-1.78,3.2c1.05,1.29,2.06,2.61,3.1,3.91a13,13,0,0,1-2.12,4.58c-.23.86-.44,1.72-.66,2.58.22,1.23.42,2.45.62,3.68l-1.85.85,1.71.7c-1.13,1.79-.73,3.84-.54,5.8-.88.64-1.93.13-2.88.06-2-.5-3.87.34-5.78.59a6.16,6.16,0,0,0-4.4-1.7c0-1.26.09-2.52.14-3.78a14.89,14.89,0,0,1-5.59-1.78l-.45,2.9c-1.54,2.07-1.05,4.7-.85,7.09a24,24,0,0,0-4.3,2.76c-1,.12-1.92-.73-2.89-1-1.77-.95-3.82-.83-5.77-.87-.1-2.76-.73-5.54-.1-8.28l-1.4-1.74,1.85-1.05c.38-.59.75-1.17,1.14-1.74-1.63-1.64-4.09-1.51-6.22-1.74l-1.65.59c-.89-3.15-1.29-6.45-2.74-9.41l-2.07-.34a39.73,39.73,0,0,0,11.74-10.92c1.7-2.3,2.83-5,4.27-7.42,1.19-3,3.19-5.61,4.64-8.5,2.27-4.43,4.57-8.86,6.41-13.5.58.06,1.43.79,1.85.07,1.3-1.07.33-2.61-.37-3.69C399.38,59.49,399.84,58.26,400.33,57.05Z"/><path
    id="Fes_Meknes"
    class="cls-1"
    d="M474.15,64.06c3.1-.8,6.07-2,9.16-2.91-.08.42-.23,1.24-.31,1.65,1.84,0,3.69-.08,5.53-.1a18.62,18.62,0,0,1-.78,4.25c.2.56.41,1.12.62,1.68a4.22,4.22,0,0,0-1.73,2.55c-.74-.08-1.47-.15-2.2-.24l-1.88.81a17.2,17.2,0,0,1,.62,3.41c-.41,1.68-2.08,2.58-3.05,3.9a27.58,27.58,0,0,0-.05,5.14,8.57,8.57,0,0,0-2.37.51,31.47,31.47,0,0,0,1.06,3.38l2,.77c-.18,2.68-.49,5.34-.78,8a6.45,6.45,0,0,0-2,6c-.61.69-1.21,1.38-1.82,2.06,0,1-.06,2-.07,3a12,12,0,0,0-5.48,3L472,112.1l-.84,2.39a6,6,0,0,0,5.62,2.58,9.05,9.05,0,0,1,3-2.32c.2.84.41,1.68.63,2.53l2.41-2.53-2.41-.56a6,6,0,0,1,3.73-4c2.89-2.43,5.78-5.23,7.14-8.84,3.05.81,4.75,3.8,7.52,5.09,3,.88,6.22-.2,9.14,1a19.94,19.94,0,0,0-4.21,5.16c-1.22,1.35-2.82,2.37-3.69,4,2.62,2.31,4.9,5,7.47,7.34a29,29,0,0,1,4.76,5.5,10.11,10.11,0,0,1-5.65,3.28c-3.43.67-6.81,1.65-10.27,2-2.53.34-4.65-1.22-6.95-1.91-2.78,1.47-4.31,4.32-5.71,7-1.64,1.52-3.43,3-4.52,5-1.66,2.75-3.84,5.17-5.16,8.11l-2.24-.62a27.42,27.42,0,0,1-2.93.55,8.35,8.35,0,0,1-1.92-2.52c-2.13-3.67-6-5.73-8.64-9-2.78-.07-5.61.84-8.33-.28.76-2.87-1.06-5.18-2.34-7.53a20.46,20.46,0,0,1-6.53.55l-2,2c0,.66,0,1.32,0,2a17.92,17.92,0,0,1-3.7,2.91c-.52.1-1,.18-1.54.25a11.38,11.38,0,0,0-1.66-3l-.08-1.69c-.47-.69-1.35-1.24-1.24-2.18a19.64,19.64,0,0,1,1.28-1.61c0-.91,0-1.81.07-2.71-2.05.58-4.27,1.17-6.28.11-.31-1-.63-2-.94-3,.58-2.43-1.09-4.52-3.14-5.56-2.24-.33-4.5-.77-6.25-2.33-.11-.4-.34-1.18-.46-1.57.75-2.34,0-4.82.49-7.2a13.65,13.65,0,0,0,2.29-4.57,50.71,50.71,0,0,0-3.19-4.11l2.08-2.57-1.81-2c0-.37-.12-1.13-.15-1.5A17.16,17.16,0,0,1,412,92.38c1.17-.79,2.63-1.53,2.41-3.23a6.26,6.26,0,0,0,2.88,1.94q.26.73.54,1.5a33.43,33.43,0,0,1,4.47.28l1.77-1.62,1.7.16q.63-.81,1.29-1.62c-.23-.29-.68-.88-.9-1.18.47-.67,1.08-1.25,1.51-2-.47-1.67-1.85-2.83-3-4.07a22.43,22.43,0,0,0,5.51-3.84c0-.42.06-1.25.07-1.67a14.52,14.52,0,0,0,3.4-1.94c.7-.5,1.8-.72,2-1.71.28-2.16-.17-4.38.32-6.53a8.08,8.08,0,0,1,4-1.58c2.76-.34,5.28-1.62,8-2.1.51,1.4.31,3.3,1.61,4.26,2.12.76,4.76,0,6.43,1.83a4.88,4.88,0,0,1,4.42.92l1.15-1.68c.81,0,1.62-.1,2.44-.2,1.21-.69,1.46-2.27,2.1-3.4,1.48.82,3,1.61,4.49,2.34C471.88,66.26,473.05,65.19,474.15,64.06Z"/><path
    id="Casablanca_Settat"
    class="cls-1"
    d="M365.7,106.78a13.87,13.87,0,0,1,4.48-1.93c.79.51,1.6,1,2.41,1.51,1.12,3.3.91,7.25,3.62,9.81.1-.47.29-1.41.37-1.88,2,.38,4,.68,6,1a16.43,16.43,0,0,1-2.92,3,19,19,0,0,0,1.22,2c-.57,2.4,0,4.85.21,7.26-.91.53-2.09.89-2.58,1.91-1.13,2.64-1.68,5.49-2.75,8.16-.22,1-1.15,1.42-1.95,1.82a18.44,18.44,0,0,1-1.74,10c.79.94,1.9,1.73,2.35,2.91-.43,3.27-.23,6.69-1.71,9.74-1,.51-1.94,1-2.89,1.57l-1.88-.22c-.94-.83-1.9-1.61-2.88-2.35-1.68,0-2.48-1.45-3.32-2.63-1.4.57-3,.86-4.23-.17l-1,1c-3.27-.24-5.37-3-6.4-5.82-4.36-1.42-7.08-5.52-9.34-9.26-3.26,2.61-2.49,7.13-2.53,10.78-1.36,2.3-3.93,3.29-6.22,4.41-1.35.62-2.25,1.87-3.49,2.66a40.75,40.75,0,0,0-5.51,2.39c-2.86-2.21-2.13-6.68-5.39-8.51a41.58,41.58,0,0,1-6.65,1.3c-1.46-1.37-2.93-2.76-4.36-4.16.46-.82.94-1.64,1.43-2.44-.65-.64-1.31-1.26-1.95-1.9,3.47-3.35,6.92-6.73,10.17-10.32,1.5-1.95,2.84-4,4.37-6,0-.45,0-1.36,0-1.82q1.28-1.37,2.58-2.7c3.49,1,5.78-2.36,8-4.43,3.51-1.44,7.11-2.7,10.54-4.34,3.16-1.54,6.62-2.5,9.51-4.57,1.57-1.15,3.7-.72,5.39-1.61a37.4,37.4,0,0,0,4.25-3.19C362.86,109.49,364.16,107.9,365.7,106.78Z"/><path
    id="BeniMellal_Khenifra"
    class="cls-1"
    d="M396.52,118.69a14.08,14.08,0,0,0,4.26.94c0,1.42,0,2.85,0,4.27l3.41.12c.27.37.8,1.09,1.06,1.46,1.81-.19,3.6-.53,5.39-.9,1.53.92,3.88,1.26,5-.46-1.06-1.25-.84-3-.95-4.45,2.24,1.23,4.5,2.84,7.2,2.44.9.83,1.79,1.69,2.67,2.55-.12.74-.25,1.48-.35,2.23.34,1,.66,2,1,3.08,1.86,1.95,4.52,1.7,6.88.94a10.89,10.89,0,0,1-2,3.56c.48.92,1,1.82,1.51,2.71l-.45.78a4.22,4.22,0,0,1,1.77,4.4,15.65,15.65,0,0,0-2,3.09c-.39,2.18.17,4.47-.54,6.6a20.85,20.85,0,0,0-1,4.41h-1.67l.3,2a40.23,40.23,0,0,1-4.77.66c.32,1.67-.05,4,1.89,4.77-.3.7-.58,1.4-.86,2.09l2,2.25-3.26-.78a28.93,28.93,0,0,1-4.34,1.32c-1,.95-1.93,1.93-2.88,2.91-1,.27-2.6-.29-3.2.79a18.24,18.24,0,0,0-1,5.63,25.16,25.16,0,0,1,2.53,1.18c.55,1.21-.43,2.52-.64,3.74-3.29.25-3.77,4.24-6.62,5.2-6.86,2.58-13.89,5.2-19.66,9.86l-3-.15a27.93,27.93,0,0,1-.51,4.73,88.73,88.73,0,0,1-9.37-.09c-.35-.46-.69-.91-1-1.36l-2.85.86c-.5-1-1-2-1.49-2.93a17.67,17.67,0,0,0,1.6-4.45l-2.6-.57a4.92,4.92,0,0,0-2-2.33c0-.4-.1-1.2-.13-1.61l-1.74-.53c.56-.85.83-2.09,1.93-2.44,2.65-.2,5.57.68,8-.86l-.76-1.48,1.62-.59c-.69-1-1.39-2-2.1-3,0-1.12,0-2.23,0-3.34L371,176.57a36.77,36.77,0,0,1,.28-11.13l-.64-1.71c2.94-.51,3.91-3.6,4-6.21,0-1.81.29-3.6.43-5.4-.78-1.31-2.52-2.43-1.71-4.16a24.81,24.81,0,0,0,1.45-7.67c2.46-3.21,3.09-7.31,4.35-11l1.45-.78c3.1,1.25,7.17.12,9.42,3.26a13.11,13.11,0,0,1,5-3.88c0-1.83-.18-3.65,0-5.48A16.25,16.25,0,0,0,396.52,118.69Z"/><path
    id="Draa_Tafilalet"
    class="cls-1"
    d="M439.57,136.32l1.77-1.77a46,46,0,0,1,6,.28A5.54,5.54,0,0,1,449,141c2.72,1.87,6,1.55,9.05.83,1.47,2.44,4.08,3.73,6,5.76,1.82,1.7,2.86,4,4.38,6l3.16-.47,2.85.44q1.37,1.29,2.7,2.61c-.62,2.6,1.77,4.21,3.09,6.06,1.17,1.47,1,3.42,1.12,5.19l2-.14c-.05.53-.17,1.61-.23,2.15l5.11.25L487,171.28c0,.29,0,.85-.05,1.13l1.46.86c.71-.48,1.42-1,2.13-1.49,2.51-.1,4.68,1.36,7.14,1.49a17.31,17.31,0,0,1,3.22-2c-1.86,3-1.57,6.95-.4,10.16.73,1.36,1,3.8,3.17,3.22-1.55,1.28-2.79,3.16-4.87,3.61-4.26,1.11-8.61,1.85-12.86,3a85.35,85.35,0,0,0,.13,10.24c-1,.3-2,.58-3,.86a16.47,16.47,0,0,0-.82,3.87c-.09.27-.27.8-.35,1.06a20.15,20.15,0,0,1,.57,5.75q1.66-.78,3.3-1.62c0,.5-.05,1.52-.07,2h2.07c.86,1.27,2.83,2.26,2.28,4-.3,1.59-1.63,2.68-2.64,3.85-2.24,1.88.1,5-.73,7.41-1.83.82-3.44,2-5.19,2.95-5.81,0-12,.05-17.17,3-2.58,2.1-4.74,4.66-7.15,7-4.28,4.92-11.4,5.68-16.08,10.1-3.06,2.94-7,4.86-9.75,8.11-1.45,1.5-1,3.85-2.17,5.51-2.18,3.29-4.62,6.39-6.64,9.78a11.05,11.05,0,0,1-4.07-2.17l-1.47.89c.43-.73.87-1.45,1.31-2.17a10.18,10.18,0,0,0-3.12-1.61c-4-.1-7.83,2.46-11.88,1.45-3.17-.09-6.34.52-9.52.46.66-2.31.71-4.73,1.26-7.08-.18-2.78-.82-5.52-1.17-8.29a25.73,25.73,0,0,0,2.79-1.71c-.91-2-3.39-.93-4.93-.56a8.68,8.68,0,0,1,.2-3.89c-1.14-1.19-2.29-2.35-3.45-3.51,1-1.06,2-2.11,3-3.18-1.86-2-3.94-3.89-5.38-6.26-1.74.44-3.46,1.27-5.26,1.22l-.8-1-1-.27q0,2.33,0,4.65c-3.47.16-7,.19-10.17-1.4-1.22,1.81-2.56,3.54-3.76,5.36-1.08,1.4-.67,3.31-1,4.94a18.38,18.38,0,0,1-2-2.93c-.57-.07-1.13-.13-1.7-.18-.93-.25-1.87-.47-2.82-.63l-1.27-.73-1.37,1a21.9,21.9,0,0,0-1.54-7.9l-1.92.86c.08-.49.25-1.48.33-2a31.5,31.5,0,0,1,5.57-3.84c-.68-1.28-1.33-2.57-2-3.86l.74-.95c-.27-1-.53-2-.79-3-1.24-.07-2.48-.13-3.71-.17.61-1.58.2-3.69,1.86-4.67l-.56-.33-2.84.27c.38-3.38.68-6.86-.49-10.12,1.52-1,2.93-2.14,4.37-3.25,1.64-1.34,3.82-1.62,5.61-2.7,2.86,0,5.29-1.62,7.19-3.62l.28-1.89c1.1.14,2.28.28,2.67,1.5.55,1.42,2.22.42,3.25.22.53.54,1.05,1.25,1.93,1.11,3,.15,6,0,9,0,.42-1.41.76-2.84,1.06-4.28,2.43-.17,4.22-1.92,6.26-3,5-3.25,10.74-5.09,16.23-7.35,1.69-.76,2.46-2.59,3.71-3.86.9-.61,1.94-1,2.86-1.58a10.83,10.83,0,0,0,.9-3.61,5.89,5.89,0,0,0-2.64-1.7,33.72,33.72,0,0,1,.66-5.28,4.57,4.57,0,0,0,4.18-1.62c1.38-1.82,3.69-2.14,5.74-2.79a17.44,17.44,0,0,0,4.43.65c-1.09-1.53-3.16-3.13-1.48-5a6.36,6.36,0,0,1-2.23-3.94c1.42-.24,2.83-.48,4.26-.69.34-.65.69-1.3,1-2,.32-.15,1-.46,1.29-.62.06-1,.12-2,.2-3,2.12-3-.41-7.23,2.33-9.82,1.08-1.3,2.31-2.64,4.14-2.65,1-1,2-2,3-3C439.79,137.59,439.64,136.74,439.57,136.32Z"/><path
    id="Marrakech_Safi"
    class="cls-1"
    d="M339.84,146.1l1.24-.79a35.8,35.8,0,0,0,2.62,4.43c2,1.39,3.64,3.35,5.92,4.39,1.42,2.1,2.71,4.88,5.47,5.39,2.17.34,4.57.58,6.59-.49.88,2.54,3.7,2.8,5.52,4.35a4.69,4.69,0,0,0,2.74.91c1.09,3.93-.62,8,.4,12a16.93,16.93,0,0,0,1.58,1.71c0,1.77,0,3.68,1.41,5-.24,1.17-.49,2.33-.72,3.5-1.93.16-4,.62-5.76-.39a9.21,9.21,0,0,0-3.08,2.32l-.15,2.13,1.13,0c.92,2.09,2.35,4.78,5,4.62a9.55,9.55,0,0,1-3.37,5.8c0,.31-.13.92-.17,1.23-1.38,1.1-2.74,2.4-4.54,2.68a9.94,9.94,0,0,0-3.86,1.38c-3.16.45-5.35,2.9-7.74,4.76-1.1-.35-2.19-.68-3.3-1-1.21,1.64-3,3-3.49,5.05-.62,1.71-.91,3.92-2.8,4.72-1.5-.18-2.95-.71-4.46-.8s-2.84,1.05-4.12,1.83c-4.38,1.53-9.06.66-13.43-.39a24.45,24.45,0,0,1-2.91,2.27,10.32,10.32,0,0,0-2.23-5.56c-2.16,2.2-6.21,2.63-6.72,6.15a68.76,68.76,0,0,0-7.72.56c-1-1-1.93-1.92-2.88-2.89l-.87.53c-.93.34-1.85.7-2.77,1.07a33.43,33.43,0,0,1-3.62-1.6c-.16.36-.48,1.11-.63,1.48l-1.23-.55a7.78,7.78,0,0,1-3.15,3.13l-1.06-1.57,0-1.67c-.91-1.3-2.32-2.53-2.27-4.25a35.37,35.37,0,0,0-.5-5.73c-.06-3.68,2.4-7.67,0-11.07,1.47-2.05,2.53-4.36,4-6.43,1.15-1.49.92-3.51,1.74-5.13A138.57,138.57,0,0,1,295,177.69c1.57-1.78,2-4.22,3.29-6.17,1.52-2,.91-4.56,1.36-6.86l-1.47-1.16a33.45,33.45,0,0,0,2-4.81,21.91,21.91,0,0,0-1.55-2.86,95.66,95.66,0,0,0,7.28-6.81c.32.34,1,1,1.29,1.32-.14,1-1.33,2.24-.48,3.18,1.31,1.62,2.73,3.38,4.72,4.18a15.65,15.65,0,0,0,6.42-1.23c2.41,2,1.85,5.71,4.29,7.72.05.4.16,1.23.2,1.64a13.88,13.88,0,0,1,6.39-3.06c2.85-3.32,7.68-3.85,10.27-7.5C338.82,152.2,338.62,149,339.84,146.1Z"/><path
    id="Souss_Massa"
    class="cls-1"
    d="M343.84,215.22c.38-2.38,2.5-3.86,4.59-4.67,1.73,3.63,1.31,7.69,1.13,11.57a19.19,19.19,0,0,1,2,.87c0,.91.07,1.82.07,2.74l-1.7,1.24a33,33,0,0,0,5.15.55,14.5,14.5,0,0,0,1.13,6.83c-1.43,1.7-3.45,2.7-5.3,3.84,0,.9.07,1.8.12,2.71.76,0,1.53,0,2.3,0a10.31,10.31,0,0,0,1.36,4.34l-2,2.34a6.22,6.22,0,0,0,4-.32l1.07,1,1.13-.33c.93.33,1.87.63,2.83.92A18.78,18.78,0,0,0,364.1,252c1.51-1.27.58-3.51.87-5.21a43.88,43.88,0,0,0,4-5.47,24.53,24.53,0,0,0,4.13,1.33,45.47,45.47,0,0,1,5.72.08c.92-1.3.8-2.9.71-4.41,1.68,2.19,4.18.23,6.22-.17,1.29,2.16,3.39,3.64,5.08,5.46a25.93,25.93,0,0,0-2.93,3.18,39.29,39.29,0,0,0,3.5,3.8c-.3.69-.6,1.39-.89,2.09l1.21,2.26c1.24-.16,2.78-1.23,3.83-.08-.72.63-1.82.95-2.28,1.83.1,2.7,1,5.34,1,8.06-.42,2.29-.36,4.68-1.24,6.87-1,.57-2,1.19-3.07,1.8-2.29,0-4.86-.14-6.75,1.38-2.23,2-5-.52-7.56-.34s-5.37-1.57-7.87-.27c-2.11.93-3.5,2.84-5.31,4.18-2.77,1.6-6.06.75-9.06,1.12a21.43,21.43,0,0,0-1,2.35c-3.51,1-6.24,3.41-9.2,5.38-4.83,4.69-11.45,7.12-15.94,12.22C324.87,302.4,321,303,318,305c-.41,4.73,0,9.51-.23,14.26-3.43-3.14-5.63-7.31-8.77-10.7a12.57,12.57,0,0,0-1.31-3.29c-1.45-.75-3.19-.51-4.76-.71a23.79,23.79,0,0,1-2.35-2.57c.21-.72.48-1.42.74-2.12l-1.07-.64c-.43-1.95-.38-4-.9-5.89a9.68,9.68,0,0,0,3.54-1.91l-.59-1.19c.78-.72,1.56-1.44,2.36-2.15a6.7,6.7,0,0,0-1.18-3.43c-1.32-1.72-1.32-3.95-1.89-5.94-1.37-2.4-3.67-4.64-6.67-4.2a18.94,18.94,0,0,1-1.33,2c-1.43.17-2.86.21-4.29.29-.34-.62-.67-1.22-1-1.84-.68.65-1.38,1.28-2.08,1.89l-.87-1.27c-.05.46-.16,1.38-.21,1.85L283,275.78c-1.1.88-2.29,2-3.82,1.85a8,8,0,0,1-2.42-1.67,12.26,12.26,0,0,0,1.08-3.5c-1.32.6-2.63,1.22-3.95,1.81,0-1.57-.37-3.29.42-4.74,1.42-2.76,4.36-4.27,6-6.89,1.88-2.95,3-6.28,4.63-9.39,1.37-2.58,1.45-5.56,2-8.37a26.74,26.74,0,0,0,.59-5.49c-1.95-1-2.52-3.15-3.36-5-1.89-1.68-3.53-3.91-6.27-4.13,1.45-3,3.43-6.06,2.59-9.56,2.07.77,1.54,3.56,3.19,4.88,1.85-1.06,3.41-2.89,5.58-3.21,2.4.8,4.84.3,7.21-.29l2.53,2.5a28.6,28.6,0,0,1,8.6-1c0-.74.06-1.48.1-2.22,2.19-.88,3.85-2.74,6.16-3.35.81,2.2.63,4.9,2.43,6.62l.38-2,1.86-1.69a34.18,34.18,0,0,0,8.43,1.27,11.18,11.18,0,0,0,6.78-2c2.21-1.35,4.8-.26,7.11.25A9,9,0,0,0,343.84,215.22Z"/><path
    id="Guelmim_OuedNoun"
    class="cls-1"
    d="M269.52,278.18c1.72-2.05,2.51-4.63,3.71-7,.15,1.22.3,2.46.43,3.69,1.19-.34,2.37-.7,3.57-1L276,275.74c1,.82,1.65,2.27,3.08,2.28,1.55.31,2.81-.72,4-1.55.33.26,1,.81,1.3,1.08.23.63.48,1.26.75,1.88,1-1.06,2-2.11,3-3.17.68.74,1.38,1.48,2.07,2.22.22-.53.45-1,.68-1.54l2.05,1c1.23-1.57,2.71-3.11,4.91-2.74,1.1,1.17,2.23,2.32,3.34,3.48-.36,3.45,2,6.08,2.94,9.16a16.5,16.5,0,0,1-5.45,3.8c0,1.74.38,3.46.27,5.2a32.84,32.84,0,0,1,1.12,5.37,13.15,13.15,0,0,0,3.06,3,27.42,27.42,0,0,0,4.15.32,14.73,14.73,0,0,0,1.88,4c2.82,3.62,5.38,7.47,8.65,10.73-.05,14.88-.18,29.76-.14,44.65a18.74,18.74,0,0,1-5.43-1.46c-1.87-1.22-3-3.37-5.07-4.3-3.84-1.54-6-5.44-9.83-7-3,1.61-7.19,4-10.29,1.36-1.65-1.17-3.45-2.12-5-3.41s-2.21-3.31-3.54-4.8c-.69-.85-1.71,0-2.47.21a4.82,4.82,0,0,1-2.74.18c-.35-.63-.69-1.25-1-1.86-2.6,0-4.2-2-5.89-3.67-1.13-1.29-3-.77-4.49-.72-4,.56-8.11.92-12.14,1.55a6.92,6.92,0,0,0-4-.4c-3.87,1.1-7.92,1.19-11.91,1.32-2.59-.59-5-2.05-7.67-2.12-1.75-.05-3.65-.32-4.81-1.79a25.16,25.16,0,0,1-4.84-9.28c-.37-1.44-1.61-2.36-2.53-3.43,3.34-1.84,7.34-2.34,10.34-4.8,2.38-2.37,3.81-5.53,6.22-7.88,2.74-2.77,5.54-5.48,8.24-8.28,5.83-3.28,12-6.12,17.39-10.12,3.58-2.68,4.93-7.37,8.69-9.88C267.1,282.84,267.85,280.14,269.52,278.18Z"/><path
    id="Laayoune_SakiaElHamra"
    class="cls-1"
    d="M200.64,330.61c4.61-.78,8.31-3.87,12.7-5.31,3,2.16,2.81,6.13,4.81,9,1.55,2.81,3.7,6.08,7.32,6s6.66,2.59,10.28,2.14A68.76,68.76,0,0,0,246,341.22a8.45,8.45,0,0,1,3.73.35c5.23-.53,10.4-1.54,15.64-1.78,1.27,1.28,2.53,2.56,3.83,3.79,1.92,0,3.14,1.38,4.4,2.61,1.55.49,3.07-.41,4.57-.7,1,1.36,1.67,3,2.87,4.25,2.25,2.42,5.45,3.6,7.87,5.82,3.15,0,5.87-1.78,8.82-2.42,3.5,1.16,5.41,4.68,8.68,6.25,2.24,1,3.76,3,5.62,4.55,1.74,1,3.76,1.19,5.67,1.67,0,13.88,0,27.75,0,41.63-37.29.05-74.58-.06-111.87.07-.16,20,0,40-.1,59.94-3.53-.8-7.19-2.27-10.82-1.21-3.58.71-7.44,2.56-11,.87-6.72-2.88-14.16-5.78-21.55-3.85-4.31,1.25-8.3,3.67-12.84,4.09-2.38-.29-4.56-1.41-6.9-2-4.38-1.38-9.05-1.16-13.57-.84-3.06.29-6,2.77-9.09,1.31a10.22,10.22,0,0,0-2.69-3.08c-1.4-.67-3-.83-4.39-1.49a19.33,19.33,0,0,1-3.35-3.23c.89-5.21,3.46-10.29,2.48-15.68-.78-4.15.11-8.39,1.56-12.28.92-2,2.59-3.57,3.07-5.74.53-2.37,1.06-4.74,1.8-7.05a25.24,25.24,0,0,0,4.51-8.39c1-2.6-.49-5.78,1.52-8.06,1.07-2.11,3.71-2.15,5.38-3.53,1.62-1.17,2.61-2.95,4-4.35,1.72-.4,3.55-.42,5.13-1.27,2.16-1.15,4-2.78,6.17-3.94,3.48-1.94,7.08-4,9.34-7.42,2-3.07,2.58-6.72,3.94-10.06,1-2.54,1-5.45,2.57-7.79,3.15-4.85,4.56-10.54,6.25-16,.4-2,2.57-2.51,3.9-3.71,2.29-2,2.37-5.46,4.61-7.53C184.07,333.94,192.39,332.42,200.64,330.61Z"/><path
    id="Dakhla_OuedEdDahab"
    class="cls-1"
    d="M106.92,459.15c.62-.43,1.25-.85,1.89-1.28a33.5,33.5,0,0,0,4,3.83c1.36.66,2.88.87,4.26,1.48,1.71,1.18,2.68,3.57,5,3.81,2.44-.39,4.62-1.72,7.09-2,3.77-.46,7.65-.77,11.35.25,2.86.56,5.54,1.79,8.39,2.37,6.14.16,11.21-4.44,17.31-4.53,6.3-.35,12.31,2.11,18,4.54,3.73,1.63,7.64-.49,11.35-1.12,3.46-.73,6.83.63,10.18,1.29.07,11.27,0,22.55,0,33.82a43.1,43.1,0,0,0-10.13,4.06c-3.08,1.76-7,.71-10,2.75-3.33,2.24-6.61,4.55-10,6.76a17.17,17.17,0,0,0-8.31,12.07c0,1.76.69,3.44,1.1,5.14,1.24,4.12,1.41,8.46,1.57,12.73.7,11.07,1.5,22.12,2.06,33.2-44.12,0-88.24,0-132.36.16-1,3.13-1.3,6.45-2.41,9.57A91.5,91.5,0,0,1,39.47,572c.43-2.76-.2-5.66,1-8.28-.62-2.36,1.75-3.77,2.16-5.9a33.54,33.54,0,0,1,4.27-10.06,18.08,18.08,0,0,1,2.33-2.38c1.35.21,2.82.75,4.1,0,2.71-1,3.79-4,4.22-6.61.26-2.74,3.6-4,3.39-6.91s1.61-5.56,1.89-8.46c2.88-1.11,5.65-3.55,5-7l-1.44-1.51c2.59-3,3.3-7,6-9.94a8.1,8.1,0,0,0,1.93-4.92c2.81-3.81,5.43-7.78,8.16-11.65-.73-1.27-1.52-2.5-2.14-3.82,2.12-1.3,4.72-2.15,6.16-4.31a44,44,0,0,1,7.76-8.38c2.24-2,3.54-4.88,5.88-6.81,1.59-1.31,3.69-1.71,5.35-2.91A10.37,10.37,0,0,0,106.92,459.15Z"/></g>
  <g id="Regioni"><path
    id="Tangeri_Tetouan_AlHoceima-2"
    data-name="Tangeri_Tetouan_AlHoceima"
    class="cls-2"
    d="M421.59,22.68c2.34-.22,3.24-3.62,5.74-3.11.67.06,1.36.18,2,.29-.14,2.87-.62,6.1,1.2,8.56,1.24,1.54,1.38,3.6,2.35,5.28,1.24,1.13,2.92,1.72,4,3.06,1,1.1,1.53,2.67,2.85,3.47,2.39,1.4,4,3.79,6.47,5.08,4.11,3.61,9.79,3.88,14.83,5.29,2.31.86,4.33-.92,6.57-1.21,3.13-.58,6.06-1.94,9.22-2.43a7.16,7.16,0,0,0,4.43,2.16c-.27,4,.25,8.14-.74,12.1-1.8,1.27-4.26,1.37-6.35,2.07-1.13,1.16-2.28,2.3-3.43,3.44a17.33,17.33,0,0,1-4.28-2.79c-.73,1.17-1.45,2.36-2.13,3.56-1.38.33-3.35,0-3.88,1.69a68.38,68.38,0,0,0-11-2.18c-.27-1.5-.54-3-.78-4.5-3.22.57-6.28,1.8-9.51,2.33a9.51,9.51,0,0,0-4,2.12,40.38,40.38,0,0,1-.27,7l-1.67.13c-1.15,2.16-3.7,1.18-5.66,1.32.05-1.13.12-2.25.19-3.37-1.26-.56-2.52-1.12-3.76-1.73a7.61,7.61,0,0,0-4.05-3.65,12,12,0,0,0-1.49,1q-1.45-.47-2.91-.9c0-2.64,0-5.29,0-7.93-1.78-.26-3.76,0-5.34-1.07-1.09-.55-2.14-1.83-3.44-1-1.6-2.15-4.08-.68-6.15-.32.62-2.41,1.05-4.93,2.25-7.14,2-3.33,2.22-7.33,3.93-10.78,2.36-4.61,2.58-9.93,4.46-14.72a13.44,13.44,0,0,1,4.15,1.24c.81-.75,1.59-1.53,2.36-2.33C419,22.73,420.3,22.78,421.59,22.68Z"/><path
    id="RegioneOrientale-2"
    data-name="RegioneOrientale"
    class="cls-2"
    d="M509,41.16c.27,1,.52,2.05.81,3.07.59,1.86.88,3.82,1.46,5.69,1.24,2.45,4.33,3.32,6.86,2.59a15.56,15.56,0,0,0,5.6,1c1.81.08,3.1-1.37,4.64-2.07,2.38.29,5.12.9,6.34,3.21,2.08,2.16,4.21,4.64,7.17,5.54.59,1.49,2.06,2.18,3.35,3,1,2,3.25,2.65,5,3.74-1,1.7-2.1,3.35-3.19,5,1.7,1.81,2.78,4.15,4.8,5.66-.85,1.26-2.23,2.33-2.5,3.86.84,1.45,2.37,2.63,2.32,4.46.08,2.49,1.22,4.71,1.84,7.07,0,3.89-2,7.65-1.07,11.55.64,1.84-1.26,3.05-2.06,4.47a7.28,7.28,0,0,0,3.35,2.09,7,7,0,0,1,1.81,5.18c-1.58,3.31-2.81,6.85-2.37,10.58,2.39,2.49,3.27,6.25,6.45,8,0,.94-.06,1.87-.08,2.82-.74.46-1.49.91-2.18,1.43a50.23,50.23,0,0,0,3.32,5.78c1,1.53,1.73,3.43,3.56,4.13,4.17,1.91,7.36,5.3,11.14,7.79a10.9,10.9,0,0,1-6.21,4c-2,2.24-2,5.29-2,8.1-.62.61-1.24,1.22-1.85,1.84,1.12.88,2.49.52,3.74.23l1.29,1.6c-3.1,1.94-6.82.26-10.2.36-6.36.23-12.29-2.42-18.51-3.2-1.92.2-3.7,1.57-5.66,1-3-.7-6.05-.23-9.06-.28-2.29-.09-4.13,1.67-6.39,1.67-2.57.12-5.15,0-7.72,0a17.21,17.21,0,0,0-2.45,3.66,31.1,31.1,0,0,1,3.74,9.06c-4.3.7-8.42,2.22-12.75,2.8,1.4-1.44,2.81-2.88,4.09-4.44l-3.44.29c-1.41-3.17-2.32-6.62-1.57-10.09a28.25,28.25,0,0,0,2.34-3.74,20.84,20.84,0,0,0-5.29,3c-1.69-.4-3.31-1-5-1.47-1.56-.66-2.87,1.2-4.39.78-.89-1.18,1-1.91,1.57-2.79-1.92-.05-3.84-.15-5.74-.23,0-.76,0-1.51-.05-2.26l-1.74-.18c-.26-1.66-.41-3.5-1.57-4.82a43,43,0,0,1-3.31-4.2l1-1.59a11.53,11.53,0,0,1-3.39-2.77c.12-1.9,1.5-3.31,2.55-4.79,1.27-1.62,2.28-3.42,3.44-5.12s3.36-2.62,4.16-4.65a12.28,12.28,0,0,1,4.24-5.19c1.77.54,3.36,1.57,5.17,2,3.2.09,6.32-.87,9.45-1.43s6.85-1.38,8.68-4.39a5.52,5.52,0,0,0-1.57-2.82c-2.8-3-5.73-5.78-8.67-8.6-.65-.68-1.55-1.36-1.26-2.43,1.29-1.47,3.06-2.51,4-4.27a17,17,0,0,1,3.17-3.72c-.32-.52-.63-1-.94-1.56-2.75,0-5.57.27-8.26-.41-2.8-1.4-4.81-4-7.54-5.47-2.46,3.79-4.9,8-9.11,10.11-1.59.63-2.23,2.28-2.41,3.87-1.5-.07-2.43,1.09-3.36,2.07-1.75,0-3.54-.27-4.69-1.73a44.59,44.59,0,0,0,.58-4.46c1.15-1.17,2.86-1.49,4.33-2.09,0-1-.09-2.08-.11-3.11,2-1.46,2.25-3.92,2.18-6.22.78-.67,1.53-1.38,2.35-2-.77-.76-.43-1.81-.35-2.72.29-2,.46-3.9.56-5.86l-1.95-.38-.93-2.16c.64-.44,1.33-.85,1.93-1.35a39.25,39.25,0,0,0,.23-5.31c1.11-1.07,2.63-2,2.93-3.64.12-1.24.05-2.49.08-3.73,1.62,0,4.08.58,4.13-1.81l1.25-1.21q-.37-.85-.72-1.71a6.93,6.93,0,0,0,.49-4.37c-1.6-.62-3.37-.27-5-.34l-.65-1.63-2.09.35c1.21-3.7.55-7.59.89-11.39,0-.89.83-1.44,1.26-2.14A11.84,11.84,0,0,1,485.11,45c3.23,3.36,8,4,12.35,4.47C501.69,47.43,507.35,46.18,509,41.16Z"/><path
    id="Rabat_Sale_Kenitra-2"
    data-name="Rabat_Sale_Kenitra"
    class="cls-2"
    d="M400.33,57.05c1.87.19,4.13-1.6,5.64,0,.6.79,1.49.06,2.2-.07.76.6,1.51,1.21,2.26,1.83l4.4.32c0,2.6,0,5.21,0,7.81,1.57.82,3.48,2.3,5.05.54,1.81.27,2.76,1.77,3.59,3.23,1.24.57,2.48,1.14,3.74,1.67-.13,1-.24,1.94-.35,2.91.32.19,1,.55,1.3.73l2.14-.12a8.12,8.12,0,0,1-2.44,4.4c-1.42.57-2.86,1.13-4.32,1.61.38.77.76,1.55,1.15,2.33l1.35.12c.37.77.75,1.53,1.14,2.3-.53.49-1,1-1.55,1.47.08.86.18,1.71.27,2.57h-2.38c-.4.51-.81,1-1.24,1.5-1.37-.18-2.75-.32-4.12-.43,0-.44,0-1.35,0-1.8l-2.48.07c-.23-.69-.44-1.38-.65-2.07-1.15,1.49-2.37,2.94-3.4,4.52,0,1.45,1.61,2.22,2.42,3.24,0,.35.13,1,.17,1.38.54.57,1.09,1.13,1.64,1.7a23.28,23.28,0,0,1-1.78,3.2c1.05,1.29,2.06,2.61,3.1,3.91a13,13,0,0,1-2.12,4.58c-.23.86-.44,1.72-.66,2.58.22,1.23.42,2.45.62,3.68l-1.85.85,1.71.7c-1.13,1.79-.73,3.84-.54,5.8-.88.64-1.93.13-2.88.06-2-.5-3.87.34-5.78.59a6.16,6.16,0,0,0-4.4-1.7c0-1.26.09-2.52.14-3.78a14.89,14.89,0,0,1-5.59-1.78l-.45,2.9c-1.54,2.07-1.05,4.7-.85,7.09a24,24,0,0,0-4.3,2.76c-1,.12-1.92-.73-2.89-1-1.77-.95-3.82-.83-5.77-.87-.1-2.76-.73-5.54-.1-8.28l-1.4-1.74,1.85-1.05c.38-.59.75-1.17,1.14-1.74-1.63-1.64-4.09-1.51-6.22-1.74l-1.65.59c-.89-3.15-1.29-6.45-2.74-9.41l-2.07-.34a39.73,39.73,0,0,0,11.74-10.92c1.7-2.3,2.83-5,4.27-7.42,1.19-3,3.19-5.61,4.64-8.5,2.27-4.43,4.57-8.86,6.41-13.5.58.06,1.43.79,1.85.07,1.3-1.07.33-2.61-.37-3.69C399.38,59.49,399.84,58.26,400.33,57.05Z"/><path
    id="Fes_Meknes-2"
    data-name="Fes_Meknes"
    class="cls-2"
    d="M474.15,64.06c3.1-.8,6.07-2,9.16-2.91-.08.42-.23,1.24-.31,1.65,1.84,0,3.69-.08,5.53-.1a18.62,18.62,0,0,1-.78,4.25c.2.56.41,1.12.62,1.68a4.22,4.22,0,0,0-1.73,2.55c-.74-.08-1.47-.15-2.2-.24l-1.88.81a17.2,17.2,0,0,1,.62,3.41c-.41,1.68-2.08,2.58-3.05,3.9a27.58,27.58,0,0,0-.05,5.14,8.57,8.57,0,0,0-2.37.51,31.47,31.47,0,0,0,1.06,3.38l2,.77c-.18,2.68-.49,5.34-.78,8a6.45,6.45,0,0,0-2,6c-.61.69-1.21,1.38-1.82,2.06,0,1-.06,2-.07,3a12,12,0,0,0-5.48,3L472,112.1l-.84,2.39a6,6,0,0,0,5.62,2.58,9.05,9.05,0,0,1,3-2.32c.2.84.41,1.68.63,2.53l2.41-2.53-2.41-.56a6,6,0,0,1,3.73-4c2.89-2.43,5.78-5.23,7.14-8.84,3.05.81,4.75,3.8,7.52,5.09,3,.88,6.22-.2,9.14,1a19.94,19.94,0,0,0-4.21,5.16c-1.22,1.35-2.82,2.37-3.69,4,2.62,2.31,4.9,5,7.47,7.34a29,29,0,0,1,4.76,5.5,10.11,10.11,0,0,1-5.65,3.28c-3.43.67-6.81,1.65-10.27,2-2.53.34-4.65-1.22-6.95-1.91-2.78,1.47-4.31,4.32-5.71,7-1.64,1.52-3.43,3-4.52,5-1.66,2.75-3.84,5.17-5.16,8.11l-2.24-.62a27.42,27.42,0,0,1-2.93.55,8.35,8.35,0,0,1-1.92-2.52c-2.13-3.67-6-5.73-8.64-9-2.78-.07-5.61.84-8.33-.28.76-2.87-1.06-5.18-2.34-7.53a20.46,20.46,0,0,1-6.53.55l-2,2c0,.66,0,1.32,0,2a17.92,17.92,0,0,1-3.7,2.91c-.52.1-1,.18-1.54.25a11.38,11.38,0,0,0-1.66-3l-.08-1.69c-.47-.69-1.35-1.24-1.24-2.18a19.64,19.64,0,0,1,1.28-1.61c0-.91,0-1.81.07-2.71-2.05.58-4.27,1.17-6.28.11-.31-1-.63-2-.94-3,.58-2.43-1.09-4.52-3.14-5.56-2.24-.33-4.5-.77-6.25-2.33-.11-.4-.34-1.18-.46-1.57.75-2.34,0-4.82.49-7.2a13.65,13.65,0,0,0,2.29-4.57,50.71,50.71,0,0,0-3.19-4.11l2.08-2.57-1.81-2c0-.37-.12-1.13-.15-1.5A17.16,17.16,0,0,1,412,92.38c1.17-.79,2.63-1.53,2.41-3.23a6.26,6.26,0,0,0,2.88,1.94q.26.73.54,1.5a33.43,33.43,0,0,1,4.47.28l1.77-1.62,1.7.16q.63-.81,1.29-1.62c-.23-.29-.68-.88-.9-1.18.47-.67,1.08-1.25,1.51-2-.47-1.67-1.85-2.83-3-4.07a22.43,22.43,0,0,0,5.51-3.84c0-.42.06-1.25.07-1.67a14.52,14.52,0,0,0,3.4-1.94c.7-.5,1.8-.72,2-1.71.28-2.16-.17-4.38.32-6.53a8.08,8.08,0,0,1,4-1.58c2.76-.34,5.28-1.62,8-2.1.51,1.4.31,3.3,1.61,4.26,2.12.76,4.76,0,6.43,1.83a4.88,4.88,0,0,1,4.42.92l1.15-1.68c.81,0,1.62-.1,2.44-.2,1.21-.69,1.46-2.27,2.1-3.4,1.48.82,3,1.61,4.49,2.34C471.88,66.26,473.05,65.19,474.15,64.06Z"/><path
    id="Casablanca_Settat-2"
    data-name="Casablanca_Settat"
    class="cls-2"
    d="M365.7,106.78a13.87,13.87,0,0,1,4.48-1.93c.79.51,1.6,1,2.41,1.51,1.12,3.3.91,7.25,3.62,9.81.1-.47.29-1.41.37-1.88,2,.38,4,.68,6,1a16.43,16.43,0,0,1-2.92,3,19,19,0,0,0,1.22,2c-.57,2.4,0,4.85.21,7.26-.91.53-2.09.89-2.58,1.91-1.13,2.64-1.68,5.49-2.75,8.16-.22,1-1.15,1.42-1.95,1.82a18.44,18.44,0,0,1-1.74,10c.79.94,1.9,1.73,2.35,2.91-.43,3.27-.23,6.69-1.71,9.74-1,.51-1.94,1-2.89,1.57l-1.88-.22c-.94-.83-1.9-1.61-2.88-2.35-1.68,0-2.48-1.45-3.32-2.63-1.4.57-3,.86-4.23-.17l-1,1c-3.27-.24-5.37-3-6.4-5.82-4.36-1.42-7.08-5.52-9.34-9.26-3.26,2.61-2.49,7.13-2.53,10.78-1.36,2.3-3.93,3.29-6.22,4.41-1.35.62-2.25,1.87-3.49,2.66a40.75,40.75,0,0,0-5.51,2.39c-2.86-2.21-2.13-6.68-5.39-8.51a41.58,41.58,0,0,1-6.65,1.3c-1.46-1.37-2.93-2.76-4.36-4.16.46-.82.94-1.64,1.43-2.44-.65-.64-1.31-1.26-1.95-1.9,3.47-3.35,6.92-6.73,10.17-10.32,1.5-1.95,2.84-4,4.37-6,0-.45,0-1.36,0-1.82q1.28-1.37,2.58-2.7c3.49,1,5.78-2.36,8-4.43,3.51-1.44,7.11-2.7,10.54-4.34,3.16-1.54,6.62-2.5,9.51-4.57,1.57-1.15,3.7-.72,5.39-1.61a37.4,37.4,0,0,0,4.25-3.19C362.86,109.49,364.16,107.9,365.7,106.78Z"/><path
    id="BeniMellal_Khenifra-2"
    data-name="BeniMellal_Khenifra"
    class="cls-2"
    d="M396.52,118.69a14.08,14.08,0,0,0,4.26.94c0,1.42,0,2.85,0,4.27l3.41.12c.27.37.8,1.09,1.06,1.46,1.81-.19,3.6-.53,5.39-.9,1.53.92,3.88,1.26,5-.46-1.06-1.25-.84-3-.95-4.45,2.24,1.23,4.5,2.84,7.2,2.44.9.83,1.79,1.69,2.67,2.55-.12.74-.25,1.48-.35,2.23.34,1,.66,2,1,3.08,1.86,1.95,4.52,1.7,6.88.94a10.89,10.89,0,0,1-2,3.56c.48.92,1,1.82,1.51,2.71l-.45.78a4.22,4.22,0,0,1,1.77,4.4,15.65,15.65,0,0,0-2,3.09c-.39,2.18.17,4.47-.54,6.6a20.85,20.85,0,0,0-1,4.41h-1.67l.3,2a40.23,40.23,0,0,1-4.77.66c.32,1.67-.05,4,1.89,4.77-.3.7-.58,1.4-.86,2.09l2,2.25-3.26-.78a28.93,28.93,0,0,1-4.34,1.32c-1,.95-1.93,1.93-2.88,2.91-1,.27-2.6-.29-3.2.79a18.24,18.24,0,0,0-1,5.63,25.16,25.16,0,0,1,2.53,1.18c.55,1.21-.43,2.52-.64,3.74-3.29.25-3.77,4.24-6.62,5.2-6.86,2.58-13.89,5.2-19.66,9.86l-3-.15a27.93,27.93,0,0,1-.51,4.73,88.73,88.73,0,0,1-9.37-.09c-.35-.46-.69-.91-1-1.36l-2.85.86c-.5-1-1-2-1.49-2.93a17.67,17.67,0,0,0,1.6-4.45l-2.6-.57a4.92,4.92,0,0,0-2-2.33c0-.4-.1-1.2-.13-1.61l-1.74-.53c.56-.85.83-2.09,1.93-2.44,2.65-.2,5.57.68,8-.86l-.76-1.48,1.62-.59c-.69-1-1.39-2-2.1-3,0-1.12,0-2.23,0-3.34L371,176.57a36.77,36.77,0,0,1,.28-11.13l-.64-1.71c2.94-.51,3.91-3.6,4-6.21,0-1.81.29-3.6.43-5.4-.78-1.31-2.52-2.43-1.71-4.16a24.81,24.81,0,0,0,1.45-7.67c2.46-3.21,3.09-7.31,4.35-11l1.45-.78c3.1,1.25,7.17.12,9.42,3.26a13.11,13.11,0,0,1,5-3.88c0-1.83-.18-3.65,0-5.48A16.25,16.25,0,0,0,396.52,118.69Z"/><path
    id="Draa_Tafilalet-2"
    data-name="Draa_Tafilalet"
    class="cls-2"
    d="M439.57,136.32l1.77-1.77a46,46,0,0,1,6,.28A5.54,5.54,0,0,1,449,141c2.72,1.87,6,1.55,9.05.83,1.47,2.44,4.08,3.73,6,5.76,1.82,1.7,2.86,4,4.38,6l3.16-.47,2.85.44q1.37,1.29,2.7,2.61c-.62,2.6,1.77,4.21,3.09,6.06,1.17,1.47,1,3.42,1.12,5.19l2-.14c-.05.53-.17,1.61-.23,2.15l5.11.25L487,171.28c0,.29,0,.85-.05,1.13l1.46.86c.71-.48,1.42-1,2.13-1.49,2.51-.1,4.68,1.36,7.14,1.49a17.31,17.31,0,0,1,3.22-2c-1.86,3-1.57,6.95-.4,10.16.73,1.36,1,3.8,3.17,3.22-1.55,1.28-2.79,3.16-4.87,3.61-4.26,1.11-8.61,1.85-12.86,3a85.35,85.35,0,0,0,.13,10.24c-1,.3-2,.58-3,.86a16.47,16.47,0,0,0-.82,3.87c-.09.27-.27.8-.35,1.06a20.15,20.15,0,0,1,.57,5.75q1.66-.78,3.3-1.62c0,.5-.05,1.52-.07,2h2.07c.86,1.27,2.83,2.26,2.28,4-.3,1.59-1.63,2.68-2.64,3.85-2.24,1.88.1,5-.73,7.41-1.83.82-3.44,2-5.19,2.95-5.81,0-12,.05-17.17,3-2.58,2.1-4.74,4.66-7.15,7-4.28,4.92-11.4,5.68-16.08,10.1-3.06,2.94-7,4.86-9.75,8.11-1.45,1.5-1,3.85-2.17,5.51-2.18,3.29-4.62,6.39-6.64,9.78a11.05,11.05,0,0,1-4.07-2.17l-1.47.89c.43-.73.87-1.45,1.31-2.17a10.18,10.18,0,0,0-3.12-1.61c-4-.1-7.83,2.46-11.88,1.45-3.17-.09-6.34.52-9.52.46.66-2.31.71-4.73,1.26-7.08-.18-2.78-.82-5.52-1.17-8.29a25.73,25.73,0,0,0,2.79-1.71c-.91-2-3.39-.93-4.93-.56a8.68,8.68,0,0,1,.2-3.89c-1.14-1.19-2.29-2.35-3.45-3.51,1-1.06,2-2.11,3-3.18-1.86-2-3.94-3.89-5.38-6.26-1.74.44-3.46,1.27-5.26,1.22l-.8-1-1-.27q0,2.33,0,4.65c-3.47.16-7,.19-10.17-1.4-1.22,1.81-2.56,3.54-3.76,5.36-1.08,1.4-.67,3.31-1,4.94a18.38,18.38,0,0,1-2-2.93c-.57-.07-1.13-.13-1.7-.18-.93-.25-1.87-.47-2.82-.63l-1.27-.73-1.37,1a21.9,21.9,0,0,0-1.54-7.9l-1.92.86c.08-.49.25-1.48.33-2a31.5,31.5,0,0,1,5.57-3.84c-.68-1.28-1.33-2.57-2-3.86l.74-.95c-.27-1-.53-2-.79-3-1.24-.07-2.48-.13-3.71-.17.61-1.58.2-3.69,1.86-4.67l-.56-.33-2.84.27c.38-3.38.68-6.86-.49-10.12,1.52-1,2.93-2.14,4.37-3.25,1.64-1.34,3.82-1.62,5.61-2.7,2.86,0,5.29-1.62,7.19-3.62l.28-1.89c1.1.14,2.28.28,2.67,1.5.55,1.42,2.22.42,3.25.22.53.54,1.05,1.25,1.93,1.11,3,.15,6,0,9,0,.42-1.41.76-2.84,1.06-4.28,2.43-.17,4.22-1.92,6.26-3,5-3.25,10.74-5.09,16.23-7.35,1.69-.76,2.46-2.59,3.71-3.86.9-.61,1.94-1,2.86-1.58a10.83,10.83,0,0,0,.9-3.61,5.89,5.89,0,0,0-2.64-1.7,33.72,33.72,0,0,1,.66-5.28,4.57,4.57,0,0,0,4.18-1.62c1.38-1.82,3.69-2.14,5.74-2.79a17.44,17.44,0,0,0,4.43.65c-1.09-1.53-3.16-3.13-1.48-5a6.36,6.36,0,0,1-2.23-3.94c1.42-.24,2.83-.48,4.26-.69.34-.65.69-1.3,1-2,.32-.15,1-.46,1.29-.62.06-1,.12-2,.2-3,2.12-3-.41-7.23,2.33-9.82,1.08-1.3,2.31-2.64,4.14-2.65,1-1,2-2,3-3C439.79,137.59,439.64,136.74,439.57,136.32Z"/><path
    id="Marrakech_Safi-2"
    data-name="Marrakech_Safi"
    class="cls-2"
    d="M339.84,146.1l1.24-.79a35.8,35.8,0,0,0,2.62,4.43c2,1.39,3.64,3.35,5.92,4.39,1.42,2.1,2.71,4.88,5.47,5.39,2.17.34,4.57.58,6.59-.49.88,2.54,3.7,2.8,5.52,4.35a4.69,4.69,0,0,0,2.74.91c1.09,3.93-.62,8,.4,12a16.93,16.93,0,0,0,1.58,1.71c0,1.77,0,3.68,1.41,5-.24,1.17-.49,2.33-.72,3.5-1.93.16-4,.62-5.76-.39a9.21,9.21,0,0,0-3.08,2.32l-.15,2.13,1.13,0c.92,2.09,2.35,4.78,5,4.62a9.55,9.55,0,0,1-3.37,5.8c0,.31-.13.92-.17,1.23-1.38,1.1-2.74,2.4-4.54,2.68a9.94,9.94,0,0,0-3.86,1.38c-3.16.45-5.35,2.9-7.74,4.76-1.1-.35-2.19-.68-3.3-1-1.21,1.64-3,3-3.49,5.05-.62,1.71-.91,3.92-2.8,4.72-1.5-.18-2.95-.71-4.46-.8s-2.84,1.05-4.12,1.83c-4.38,1.53-9.06.66-13.43-.39a24.45,24.45,0,0,1-2.91,2.27,10.32,10.32,0,0,0-2.23-5.56c-2.16,2.2-6.21,2.63-6.72,6.15a68.76,68.76,0,0,0-7.72.56c-1-1-1.93-1.92-2.88-2.89l-.87.53c-.93.34-1.85.7-2.77,1.07a33.43,33.43,0,0,1-3.62-1.6c-.16.36-.48,1.11-.63,1.48l-1.23-.55a7.78,7.78,0,0,1-3.15,3.13l-1.06-1.57,0-1.67c-.91-1.3-2.32-2.53-2.27-4.25a35.37,35.37,0,0,0-.5-5.73c-.06-3.68,2.4-7.67,0-11.07,1.47-2.05,2.53-4.36,4-6.43,1.15-1.49.92-3.51,1.74-5.13A138.57,138.57,0,0,1,295,177.69c1.57-1.78,2-4.22,3.29-6.17,1.52-2,.91-4.56,1.36-6.86l-1.47-1.16a33.45,33.45,0,0,0,2-4.81,21.91,21.91,0,0,0-1.55-2.86,95.66,95.66,0,0,0,7.28-6.81c.32.34,1,1,1.29,1.32-.14,1-1.33,2.24-.48,3.18,1.31,1.62,2.73,3.38,4.72,4.18a15.65,15.65,0,0,0,6.42-1.23c2.41,2,1.85,5.71,4.29,7.72.05.4.16,1.23.2,1.64a13.88,13.88,0,0,1,6.39-3.06c2.85-3.32,7.68-3.85,10.27-7.5C338.82,152.2,338.62,149,339.84,146.1Z"/><path
    id="Souss_Massa-2"
    data-name="Souss_Massa"
    class="cls-2"
    d="M343.84,215.22c.38-2.38,2.5-3.86,4.59-4.67,1.73,3.63,1.31,7.69,1.13,11.57a19.19,19.19,0,0,1,2,.87c0,.91.07,1.82.07,2.74l-1.7,1.24a33,33,0,0,0,5.15.55,14.5,14.5,0,0,0,1.13,6.83c-1.43,1.7-3.45,2.7-5.3,3.84,0,.9.07,1.8.12,2.71.76,0,1.53,0,2.3,0a10.31,10.31,0,0,0,1.36,4.34l-2,2.34a6.22,6.22,0,0,0,4-.32l1.07,1,1.13-.33c.93.33,1.87.63,2.83.92A18.78,18.78,0,0,0,364.1,252c1.51-1.27.58-3.51.87-5.21a43.88,43.88,0,0,0,4-5.47,24.53,24.53,0,0,0,4.13,1.33,45.47,45.47,0,0,1,5.72.08c.92-1.3.8-2.9.71-4.41,1.68,2.19,4.18.23,6.22-.17,1.29,2.16,3.39,3.64,5.08,5.46a25.93,25.93,0,0,0-2.93,3.18,39.29,39.29,0,0,0,3.5,3.8c-.3.69-.6,1.39-.89,2.09l1.21,2.26c1.24-.16,2.78-1.23,3.83-.08-.72.63-1.82.95-2.28,1.83.1,2.7,1,5.34,1,8.06-.42,2.29-.36,4.68-1.24,6.87-1,.57-2,1.19-3.07,1.8-2.29,0-4.86-.14-6.75,1.38-2.23,2-5-.52-7.56-.34s-5.37-1.57-7.87-.27c-2.11.93-3.5,2.84-5.31,4.18-2.77,1.6-6.06.75-9.06,1.12a21.43,21.43,0,0,0-1,2.35c-3.51,1-6.24,3.41-9.2,5.38-4.83,4.69-11.45,7.12-15.94,12.22C324.87,302.4,321,303,318,305c-.41,4.73,0,9.51-.23,14.26-3.43-3.14-5.63-7.31-8.77-10.7a12.57,12.57,0,0,0-1.31-3.29c-1.45-.75-3.19-.51-4.76-.71a23.79,23.79,0,0,1-2.35-2.57c.21-.72.48-1.42.74-2.12l-1.07-.64c-.43-1.95-.38-4-.9-5.89a9.68,9.68,0,0,0,3.54-1.91l-.59-1.19c.78-.72,1.56-1.44,2.36-2.15a6.7,6.7,0,0,0-1.18-3.43c-1.32-1.72-1.32-3.95-1.89-5.94-1.37-2.4-3.67-4.64-6.67-4.2a18.94,18.94,0,0,1-1.33,2c-1.43.17-2.86.21-4.29.29-.34-.62-.67-1.22-1-1.84-.68.65-1.38,1.28-2.08,1.89l-.87-1.27c-.05.46-.16,1.38-.21,1.85L283,275.78c-1.1.88-2.29,2-3.82,1.85a8,8,0,0,1-2.42-1.67,12.26,12.26,0,0,0,1.08-3.5c-1.32.6-2.63,1.22-3.95,1.81,0-1.57-.37-3.29.42-4.74,1.42-2.76,4.36-4.27,6-6.89,1.88-2.95,3-6.28,4.63-9.39,1.37-2.58,1.45-5.56,2-8.37a26.74,26.74,0,0,0,.59-5.49c-1.95-1-2.52-3.15-3.36-5-1.89-1.68-3.53-3.91-6.27-4.13,1.45-3,3.43-6.06,2.59-9.56,2.07.77,1.54,3.56,3.19,4.88,1.85-1.06,3.41-2.89,5.58-3.21,2.4.8,4.84.3,7.21-.29l2.53,2.5a28.6,28.6,0,0,1,8.6-1c0-.74.06-1.48.1-2.22,2.19-.88,3.85-2.74,6.16-3.35.81,2.2.63,4.9,2.43,6.62l.38-2,1.86-1.69a34.18,34.18,0,0,0,8.43,1.27,11.18,11.18,0,0,0,6.78-2c2.21-1.35,4.8-.26,7.11.25A9,9,0,0,0,343.84,215.22Z"/><path
    id="Guelmim_OuedNoun-2"
    data-name="Guelmim_OuedNoun"
    class="cls-2"
    d="M269.52,278.18c1.72-2.05,2.51-4.63,3.71-7,.15,1.22.3,2.46.43,3.69,1.19-.34,2.37-.7,3.57-1L276,275.74c1,.82,1.65,2.27,3.08,2.28,1.55.31,2.81-.72,4-1.55.33.26,1,.81,1.3,1.08.23.63.48,1.26.75,1.88,1-1.06,2-2.11,3-3.17.68.74,1.38,1.48,2.07,2.22.22-.53.45-1,.68-1.54l2.05,1c1.23-1.57,2.71-3.11,4.91-2.74,1.1,1.17,2.23,2.32,3.34,3.48-.36,3.45,2,6.08,2.94,9.16a16.5,16.5,0,0,1-5.45,3.8c0,1.74.38,3.46.27,5.2a32.84,32.84,0,0,1,1.12,5.37,13.15,13.15,0,0,0,3.06,3,27.42,27.42,0,0,0,4.15.32,14.73,14.73,0,0,0,1.88,4c2.82,3.62,5.38,7.47,8.65,10.73-.05,14.88-.18,29.76-.14,44.65a18.74,18.74,0,0,1-5.43-1.46c-1.87-1.22-3-3.37-5.07-4.3-3.84-1.54-6-5.44-9.83-7-3,1.61-7.19,4-10.29,1.36-1.65-1.17-3.45-2.12-5-3.41s-2.21-3.31-3.54-4.8c-.69-.85-1.71,0-2.47.21a4.82,4.82,0,0,1-2.74.18c-.35-.63-.69-1.25-1-1.86-2.6,0-4.2-2-5.89-3.67-1.13-1.29-3-.77-4.49-.72-4,.56-8.11.92-12.14,1.55a6.92,6.92,0,0,0-4-.4c-3.87,1.1-7.92,1.19-11.91,1.32-2.59-.59-5-2.05-7.67-2.12-1.75-.05-3.65-.32-4.81-1.79a25.16,25.16,0,0,1-4.84-9.28c-.37-1.44-1.61-2.36-2.53-3.43,3.34-1.84,7.34-2.34,10.34-4.8,2.38-2.37,3.81-5.53,6.22-7.88,2.74-2.77,5.54-5.48,8.24-8.28,5.83-3.28,12-6.12,17.39-10.12,3.58-2.68,4.93-7.37,8.69-9.88C267.1,282.84,267.85,280.14,269.52,278.18Z"/><path
    id="Laayoune_SakiaElHamra-2"
    data-name="Laayoune_SakiaElHamra"
    class="cls-2"
    d="M200.64,330.61c4.61-.78,8.31-3.87,12.7-5.31,3,2.16,2.81,6.13,4.81,9,1.55,2.81,3.7,6.08,7.32,6s6.66,2.59,10.28,2.14A68.76,68.76,0,0,0,246,341.22a8.45,8.45,0,0,1,3.73.35c5.23-.53,10.4-1.54,15.64-1.78,1.27,1.28,2.53,2.56,3.83,3.79,1.92,0,3.14,1.38,4.4,2.61,1.55.49,3.07-.41,4.57-.7,1,1.36,1.67,3,2.87,4.25,2.25,2.42,5.45,3.6,7.87,5.82,3.15,0,5.87-1.78,8.82-2.42,3.5,1.16,5.41,4.68,8.68,6.25,2.24,1,3.76,3,5.62,4.55,1.74,1,3.76,1.19,5.67,1.67,0,13.88,0,27.75,0,41.63-37.29.05-74.58-.06-111.87.07-.16,20,0,40-.1,59.94-3.53-.8-7.19-2.27-10.82-1.21-3.58.71-7.44,2.56-11,.87-6.72-2.88-14.16-5.78-21.55-3.85-4.31,1.25-8.3,3.67-12.84,4.09-2.38-.29-4.56-1.41-6.9-2-4.38-1.38-9.05-1.16-13.57-.84-3.06.29-6,2.77-9.09,1.31a10.22,10.22,0,0,0-2.69-3.08c-1.4-.67-3-.83-4.39-1.49a19.33,19.33,0,0,1-3.35-3.23c.89-5.21,3.46-10.29,2.48-15.68-.78-4.15.11-8.39,1.56-12.28.92-2,2.59-3.57,3.07-5.74.53-2.37,1.06-4.74,1.8-7.05a25.24,25.24,0,0,0,4.51-8.39c1-2.6-.49-5.78,1.52-8.06,1.07-2.11,3.71-2.15,5.38-3.53,1.62-1.17,2.61-2.95,4-4.35,1.72-.4,3.55-.42,5.13-1.27,2.16-1.15,4-2.78,6.17-3.94,3.48-1.94,7.08-4,9.34-7.42,2-3.07,2.58-6.72,3.94-10.06,1-2.54,1-5.45,2.57-7.79,3.15-4.85,4.56-10.54,6.25-16,.4-2,2.57-2.51,3.9-3.71,2.29-2,2.37-5.46,4.61-7.53C184.07,333.94,192.39,332.42,200.64,330.61Z"/><path
    id="Dakhla_OuedEdDahab-2"
    data-name="Dakhla_OuedEdDahab"
    class="cls-2"
    d="M106.92,459.15c.62-.43,1.25-.85,1.89-1.28a33.5,33.5,0,0,0,4,3.83c1.36.66,2.88.87,4.26,1.48,1.71,1.18,2.68,3.57,5,3.81,2.44-.39,4.62-1.72,7.09-2,3.77-.46,7.65-.77,11.35.25,2.86.56,5.54,1.79,8.39,2.37,6.14.16,11.21-4.44,17.31-4.53,6.3-.35,12.31,2.11,18,4.54,3.73,1.63,7.64-.49,11.35-1.12,3.46-.73,6.83.63,10.18,1.29.07,11.27,0,22.55,0,33.82a43.1,43.1,0,0,0-10.13,4.06c-3.08,1.76-7,.71-10,2.75-3.33,2.24-6.61,4.55-10,6.76a17.17,17.17,0,0,0-8.31,12.07c0,1.76.69,3.44,1.1,5.14,1.24,4.12,1.41,8.46,1.57,12.73.7,11.07,1.5,22.12,2.06,33.2-44.12,0-88.24,0-132.36.16-1,3.13-1.3,6.45-2.41,9.57A91.5,91.5,0,0,1,39.47,572c.43-2.76-.2-5.66,1-8.28-.62-2.36,1.75-3.77,2.16-5.9a33.54,33.54,0,0,1,4.27-10.06,18.08,18.08,0,0,1,2.33-2.38c1.35.21,2.82.75,4.1,0,2.71-1,3.79-4,4.22-6.61.26-2.74,3.6-4,3.39-6.91s1.61-5.56,1.89-8.46c2.88-1.11,5.65-3.55,5-7l-1.44-1.51c2.59-3,3.3-7,6-9.94a8.1,8.1,0,0,0,1.93-4.92c2.81-3.81,5.43-7.78,8.16-11.65-.73-1.27-1.52-2.5-2.14-3.82,2.12-1.3,4.72-2.15,6.16-4.31a44,44,0,0,1,7.76-8.38c2.24-2,3.54-4.88,5.88-6.81,1.59-1.31,3.69-1.71,5.35-2.91A10.37,10.37,0,0,0,106.92,459.15Z"/></g>
</svg>
